<svg xmlns="http://www.w3.org/2000/svg" viewBox="0 0 900 600" width="900" height="600" font-family="'Inter', 'Latin Modern Math', -apple-system, BlinkMacSystemFont, 'Segoe UI', Roboto, 'Helvetica Neue', Arial, sans-serif">
<metadata id="qu-figure">{&quot;version&quot;:1,&quot;width&quot;:900.0000,&quot;height&quot;:600.0000,&quot;panels&quot;:[{&quot;panel&quot;:0,&quot;left&quot;:86.0000,&quot;right&quot;:866.0000,&quot;top&quot;:48.0000,&quot;bottom&quot;:540.0000,&quot;xmin&quot;:0.0000,&quot;xmax&quot;:208.9500,&quot;ymin&quot;:-2.4721,&quot;ymax&quot;:6.2041,&quot;logX&quot;:false,&quot;logY&quot;:false,&quot;xBreak&quot;:null,&quot;yBreak&quot;:null}]}</metadata>
<rect x="0" y="0" width="900" height="600" fill="#ffffff"/>
<line x1="86.00" y1="513.23" x2="866.00" y2="513.23" stroke="#e6e6e6" stroke-width="0.7272727272727273"/>
<line x1="82.00" y1="513.23" x2="86.00" y2="513.23" stroke="#333333" stroke-width="0.7272727272727273"/>
<text x="76.00" y="517.71" font-size="12.8" text-anchor="end" fill="#5a5a5a">-2</text>
<line x1="86.00" y1="456.52" x2="866.00" y2="456.52" stroke="#e6e6e6" stroke-width="0.7272727272727273"/>
<line x1="82.00" y1="456.52" x2="86.00" y2="456.52" stroke="#333333" stroke-width="0.7272727272727273"/>
<text x="76.00" y="461.00" font-size="12.8" text-anchor="end" fill="#5a5a5a">-1</text>
<line x1="86.00" y1="399.82" x2="866.00" y2="399.82" stroke="#e6e6e6" stroke-width="0.7272727272727273"/>
<line x1="82.00" y1="399.82" x2="86.00" y2="399.82" stroke="#333333" stroke-width="0.7272727272727273"/>
<text x="76.00" y="404.30" font-size="12.8" text-anchor="end" fill="#5a5a5a">0</text>
<line x1="86.00" y1="343.11" x2="866.00" y2="343.11" stroke="#e6e6e6" stroke-width="0.7272727272727273"/>
<line x1="82.00" y1="343.11" x2="86.00" y2="343.11" stroke="#333333" stroke-width="0.7272727272727273"/>
<text x="76.00" y="347.59" font-size="12.8" text-anchor="end" fill="#5a5a5a">1</text>
<line x1="86.00" y1="286.40" x2="866.00" y2="286.40" stroke="#e6e6e6" stroke-width="0.7272727272727273"/>
<line x1="82.00" y1="286.40" x2="86.00" y2="286.40" stroke="#333333" stroke-width="0.7272727272727273"/>
<text x="76.00" y="290.88" font-size="12.8" text-anchor="end" fill="#5a5a5a">2</text>
<line x1="86.00" y1="229.70" x2="866.00" y2="229.70" stroke="#e6e6e6" stroke-width="0.7272727272727273"/>
<line x1="82.00" y1="229.70" x2="86.00" y2="229.70" stroke="#333333" stroke-width="0.7272727272727273"/>
<text x="76.00" y="234.18" font-size="12.8" text-anchor="end" fill="#5a5a5a">3</text>
<line x1="86.00" y1="172.99" x2="866.00" y2="172.99" stroke="#e6e6e6" stroke-width="0.7272727272727273"/>
<line x1="82.00" y1="172.99" x2="86.00" y2="172.99" stroke="#333333" stroke-width="0.7272727272727273"/>
<text x="76.00" y="177.47" font-size="12.8" text-anchor="end" fill="#5a5a5a">4</text>
<line x1="86.00" y1="116.28" x2="866.00" y2="116.28" stroke="#e6e6e6" stroke-width="0.7272727272727273"/>
<line x1="82.00" y1="116.28" x2="86.00" y2="116.28" stroke="#333333" stroke-width="0.7272727272727273"/>
<text x="76.00" y="120.76" font-size="12.8" text-anchor="end" fill="#5a5a5a">5</text>
<line x1="86.00" y1="59.58" x2="866.00" y2="59.58" stroke="#e6e6e6" stroke-width="0.7272727272727273"/>
<line x1="82.00" y1="59.58" x2="86.00" y2="59.58" stroke="#333333" stroke-width="0.7272727272727273"/>
<text x="76.00" y="64.06" font-size="12.8" text-anchor="end" fill="#5a5a5a">6</text>
<line x1="86.00" y1="48.00" x2="86.00" y2="540.00" stroke="#e6e6e6" stroke-width="0.7272727272727273"/>
<line x1="86.00" y1="540.00" x2="86.00" y2="544.00" stroke="#333333" stroke-width="0.7272727272727273"/>
<text x="86.00" y="558.00" font-size="12.8" text-anchor="middle" fill="#5a5a5a">0</text>
<line x1="160.66" y1="48.00" x2="160.66" y2="540.00" stroke="#e6e6e6" stroke-width="0.7272727272727273"/>
<line x1="160.66" y1="540.00" x2="160.66" y2="544.00" stroke="#333333" stroke-width="0.7272727272727273"/>
<text x="160.66" y="558.00" font-size="12.8" text-anchor="middle" fill="#5a5a5a">20</text>
<line x1="235.32" y1="48.00" x2="235.32" y2="540.00" stroke="#e6e6e6" stroke-width="0.7272727272727273"/>
<line x1="235.32" y1="540.00" x2="235.32" y2="544.00" stroke="#333333" stroke-width="0.7272727272727273"/>
<text x="235.32" y="558.00" font-size="12.8" text-anchor="middle" fill="#5a5a5a">40</text>
<line x1="309.98" y1="48.00" x2="309.98" y2="540.00" stroke="#e6e6e6" stroke-width="0.7272727272727273"/>
<line x1="309.98" y1="540.00" x2="309.98" y2="544.00" stroke="#333333" stroke-width="0.7272727272727273"/>
<text x="309.98" y="558.00" font-size="12.8" text-anchor="middle" fill="#5a5a5a">60</text>
<line x1="384.64" y1="48.00" x2="384.64" y2="540.00" stroke="#e6e6e6" stroke-width="0.7272727272727273"/>
<line x1="384.64" y1="540.00" x2="384.64" y2="544.00" stroke="#333333" stroke-width="0.7272727272727273"/>
<text x="384.64" y="558.00" font-size="12.8" text-anchor="middle" fill="#5a5a5a">80</text>
<line x1="459.30" y1="48.00" x2="459.30" y2="540.00" stroke="#e6e6e6" stroke-width="0.7272727272727273"/>
<line x1="459.30" y1="540.00" x2="459.30" y2="544.00" stroke="#333333" stroke-width="0.7272727272727273"/>
<text x="459.30" y="558.00" font-size="12.8" text-anchor="middle" fill="#5a5a5a">100</text>
<line x1="533.95" y1="48.00" x2="533.95" y2="540.00" stroke="#e6e6e6" stroke-width="0.7272727272727273"/>
<line x1="533.95" y1="540.00" x2="533.95" y2="544.00" stroke="#333333" stroke-width="0.7272727272727273"/>
<text x="533.95" y="558.00" font-size="12.8" text-anchor="middle" fill="#5a5a5a">120</text>
<line x1="608.61" y1="48.00" x2="608.61" y2="540.00" stroke="#e6e6e6" stroke-width="0.7272727272727273"/>
<line x1="608.61" y1="540.00" x2="608.61" y2="544.00" stroke="#333333" stroke-width="0.7272727272727273"/>
<text x="608.61" y="558.00" font-size="12.8" text-anchor="middle" fill="#5a5a5a">140</text>
<line x1="683.27" y1="48.00" x2="683.27" y2="540.00" stroke="#e6e6e6" stroke-width="0.7272727272727273"/>
<line x1="683.27" y1="540.00" x2="683.27" y2="544.00" stroke="#333333" stroke-width="0.7272727272727273"/>
<text x="683.27" y="558.00" font-size="12.8" text-anchor="middle" fill="#5a5a5a">160</text>
<line x1="757.93" y1="48.00" x2="757.93" y2="540.00" stroke="#e6e6e6" stroke-width="0.7272727272727273"/>
<line x1="757.93" y1="540.00" x2="757.93" y2="544.00" stroke="#333333" stroke-width="0.7272727272727273"/>
<text x="757.93" y="558.00" font-size="12.8" text-anchor="middle" fill="#5a5a5a">180</text>
<line x1="832.59" y1="48.00" x2="832.59" y2="540.00" stroke="#e6e6e6" stroke-width="0.7272727272727273"/>
<line x1="832.59" y1="540.00" x2="832.59" y2="544.00" stroke="#333333" stroke-width="0.7272727272727273"/>
<text x="832.59" y="558.00" font-size="12.8" text-anchor="middle" fill="#5a5a5a">200</text>
<line x1="86.00" y1="540.00" x2="866.00" y2="540.00" stroke="#333333" stroke-width="0.7272727272727273"/>
<line x1="86.00" y1="48.00" x2="86.00" y2="540.00" stroke="#333333" stroke-width="0.7272727272727273"/>
<line x1="86.00" y1="48.00" x2="866.00" y2="48.00" stroke="#333333" stroke-width="0.7272727272727273"/>
<line x1="866.00" y1="48.00" x2="866.00" y2="540.00" stroke="#333333" stroke-width="0.7272727272727273"/>
<clipPath id="qu-clip-8600-4800-78000-49200"><rect x="86.00" y="48.00" width="780.00" height="492.00"/></clipPath><g clip-path="url(#qu-clip-8600-4800-78000-49200)">
<polyline points="86.00,360.33 89.73,395.55 93.47,386.62 97.20,324.70 100.93,310.00 104.66,314.68 108.40,309.06 112.13,302.70 115.86,341.51 119.60,340.07 123.33,369.94 127.06,350.26 130.80,384.87 134.53,391.87 138.26,408.94 141.99,480.31 145.73,490.66 149.46,461.67 153.19,481.84 156.93,504.32 160.66,485.84 164.39,432.38 168.12,483.24 171.86,434.90 175.59,428.61 179.32,377.54 183.06,403.93 186.79,388.35 190.52,364.29 194.26,338.27 197.99,302.05 201.72,337.30 205.45,309.21 209.19,310.85 212.92,337.70 216.65,395.35 220.39,380.09 224.12,388.06 227.85,434.48 231.59,441.32 235.32,446.71 239.05,440.00 242.78,497.59 246.52,470.21 250.25,457.66 253.98,517.64 257.72,473.32 261.45,443.15 265.18,432.58 268.91,419.44 272.65,372.26 276.38,354.01 280.11,367.48 283.85,341.77 287.58,329.82 291.31,348.88 295.05,300.27 298.78,320.35 302.51,324.96 306.24,358.13 309.98,345.38 313.71,380.46 317.44,361.88 321.18,424.31 324.91,407.63 328.64,450.51 332.37,466.62 336.11,485.28 339.84,500.68 343.57,460.71 347.31,483.87 351.04,480.96 354.77,473.32 358.51,421.60 362.24,410.22 365.97,387.37 369.70,382.92 373.44,353.95 377.17,337.65 380.90,310.38 384.64,314.27 388.37,313.87 392.10,303.61 395.83,324.13 399.57,290.25 403.30,306.10 407.03,328.40 410.77,364.60 414.50,403.55 418.23,423.83 421.97,409.02 425.70,445.38 429.43,430.72 433.16,427.07 436.90,452.39 440.63,416.58 444.36,375.23 448.10,355.09 451.83,332.17 455.56,328.95 459.30,305.84 463.03,250.42 466.76,215.68 470.49,162.56 474.23,195.22 477.96,139.03 481.69,148.38 485.43,133.72 489.16,126.26 492.89,108.22 496.62,131.49 500.36,147.81 504.09,136.32 507.82,158.84 511.56,176.69 515.29,160.28 519.02,188.07 522.76,207.96 526.49,212.23 530.22,203.73 533.95,217.62 537.69,165.84 541.42,186.32 545.15,167.15 548.89,136.71 552.62,142.95 556.35,148.25 560.08,118.00 563.82,112.47 567.55,77.09 571.28,101.18 575.02,70.36 578.75,147.50 582.48,123.40 586.22,151.84 589.95,176.22 593.68,192.89 597.41,214.95 601.15,285.92 604.88,329.78 608.61,328.34 612.35,381.78 616.08,379.11 619.81,383.36 623.54,395.14 627.28,424.41 631.01,407.04 634.74,407.57 638.48,387.99 642.21,355.43 645.94,359.02 649.68,334.68 653.41,341.96 657.14,321.85 660.87,321.95 664.61,309.93 668.34,307.77 672.07,304.81 675.81,312.12 679.54,302.35 683.27,360.62 687.01,341.49 690.74,370.59 694.47,431.55 698.20,419.38 701.94,451.86 705.67,478.55 709.40,501.72 713.14,493.97 716.87,476.59 720.60,496.71 724.33,460.68 728.07,467.33 731.80,438.38 735.53,423.06 739.27,398.36 743.00,381.10 746.73,376.96 750.47,335.58 754.20,324.67 757.93,291.54 761.66,300.70 765.40,341.06 769.13,320.65 772.86,350.53 776.60,337.68 780.33,359.37 784.06,372.78 787.79,445.77 791.53,429.10 795.26,418.11 798.99,438.30 802.73,491.42 806.46,483.41 810.19,478.41 813.93,484.41 817.66,493.68 821.39,441.76 825.12,426.20 828.86,422.45" fill="none" stroke="#5B7CFA" stroke-width="1.5"/>
</g>
<circle cx="575.02" cy="70.36" r="4" fill="#c44e52" stroke="#fff"/>
<text x="581.02" y="64.36" font-size="12.8" text-anchor="start" fill="#444">(131, 5.81)</text>
<circle cx="575.02" cy="30.67" r="4" fill="#c44e52" stroke="#fff"/>
<text x="581.02" y="24.67" font-size="12.8" text-anchor="start" fill="#444">peak: n=131, x=5.809765</text>
<text x="86.00" y="30.00" font-size="19.2" text-anchor="start" fill="#444" font-weight="700">Peak finding: dominant bump + ripple + noise</text>
<text x="476.00" y="578.00" font-size="16" text-anchor="middle" fill="#444">sample index n</text>
<text x="54.31" y="294.00" font-size="16" text-anchor="middle" fill="#444" transform="rotate(-90 54.31 294.00)">x[n]</text>
<rect x="784.67" y="56.00" width="73.33" height="32.00" rx="6" fill="#ffffff" stroke="#cccccc" opacity="0.85"/>
<line x1="791.67" y1="72.00" x2="811.67" y2="72.00" stroke="#5B7CFA" stroke-width="2.2"/>
<text x="817.67" y="75.50" font-size="12" text-anchor="start" fill="#222">signal</text>
</svg>
