<svg xmlns="http://www.w3.org/2000/svg" viewBox="0 0 900 600" width="900" height="600" font-family="'Inter', -apple-system, BlinkMacSystemFont, 'Segoe UI', Roboto, 'Helvetica Neue', Arial, sans-serif">
<metadata id="qu-figure">{&quot;version&quot;:1,&quot;width&quot;:900.0000,&quot;height&quot;:600.0000,&quot;panels&quot;:[{&quot;panel&quot;:0,&quot;left&quot;:86.0000,&quot;right&quot;:866.0000,&quot;top&quot;:48.0000,&quot;bottom&quot;:540.0000,&quot;xmin&quot;:990000.0000,&quot;xmax&quot;:1210000.0000,&quot;ymin&quot;:12344580.9843,&quot;ymax&quot;:12346778.4536,&quot;logX&quot;:false,&quot;logY&quot;:false,&quot;xBreak&quot;:null,&quot;yBreak&quot;:null}]}</metadata>
<rect x="0" y="0" width="900" height="600" fill="#ffffff"/>
<line x1="86.00" y1="535.74" x2="866.00" y2="535.74" stroke="#e6e6e6" stroke-width="0.8"/>
<text x="80.00" y="540.64" font-size="14" text-anchor="end" fill="#5a5a5a"><tspan font-size="14.00">1.2	imes10</tspan><tspan dy="-0.350em" font-size="10.08">⁷</tspan></text>
<line x1="86.00" y1="490.96" x2="866.00" y2="490.96" stroke="#e6e6e6" stroke-width="0.8"/>
<text x="80.00" y="495.86" font-size="14" text-anchor="end" fill="#5a5a5a"><tspan font-size="14.00">1.2	imes10</tspan><tspan dy="-0.350em" font-size="10.08">⁷</tspan></text>
<line x1="86.00" y1="446.18" x2="866.00" y2="446.18" stroke="#e6e6e6" stroke-width="0.8"/>
<text x="80.00" y="451.08" font-size="14" text-anchor="end" fill="#5a5a5a"><tspan font-size="14.00">1.2	imes10</tspan><tspan dy="-0.350em" font-size="10.08">⁷</tspan></text>
<line x1="86.00" y1="401.41" x2="866.00" y2="401.41" stroke="#e6e6e6" stroke-width="0.8"/>
<text x="80.00" y="406.31" font-size="14" text-anchor="end" fill="#5a5a5a"><tspan font-size="14.00">1.2	imes10</tspan><tspan dy="-0.350em" font-size="10.08">⁷</tspan></text>
<line x1="86.00" y1="356.63" x2="866.00" y2="356.63" stroke="#e6e6e6" stroke-width="0.8"/>
<text x="80.00" y="361.53" font-size="14" text-anchor="end" fill="#5a5a5a"><tspan font-size="14.00">1.2	imes10</tspan><tspan dy="-0.350em" font-size="10.08">⁷</tspan></text>
<line x1="86.00" y1="311.85" x2="866.00" y2="311.85" stroke="#e6e6e6" stroke-width="0.8"/>
<text x="80.00" y="316.75" font-size="14" text-anchor="end" fill="#5a5a5a"><tspan font-size="14.00">1.2	imes10</tspan><tspan dy="-0.350em" font-size="10.08">⁷</tspan></text>
<line x1="86.00" y1="267.07" x2="866.00" y2="267.07" stroke="#e6e6e6" stroke-width="0.8"/>
<text x="80.00" y="271.97" font-size="14" text-anchor="end" fill="#5a5a5a"><tspan font-size="14.00">1.2	imes10</tspan><tspan dy="-0.350em" font-size="10.08">⁷</tspan></text>
<line x1="86.00" y1="222.29" x2="866.00" y2="222.29" stroke="#e6e6e6" stroke-width="0.8"/>
<text x="80.00" y="227.19" font-size="14" text-anchor="end" fill="#5a5a5a"><tspan font-size="14.00">1.2	imes10</tspan><tspan dy="-0.350em" font-size="10.08">⁷</tspan></text>
<line x1="86.00" y1="177.51" x2="866.00" y2="177.51" stroke="#e6e6e6" stroke-width="0.8"/>
<text x="80.00" y="182.41" font-size="14" text-anchor="end" fill="#5a5a5a"><tspan font-size="14.00">1.2	imes10</tspan><tspan dy="-0.350em" font-size="10.08">⁷</tspan></text>
<line x1="86.00" y1="132.73" x2="866.00" y2="132.73" stroke="#e6e6e6" stroke-width="0.8"/>
<text x="80.00" y="137.63" font-size="14" text-anchor="end" fill="#5a5a5a"><tspan font-size="14.00">1.2	imes10</tspan><tspan dy="-0.350em" font-size="10.08">⁷</tspan></text>
<line x1="86.00" y1="87.95" x2="866.00" y2="87.95" stroke="#e6e6e6" stroke-width="0.8"/>
<text x="80.00" y="92.85" font-size="14" text-anchor="end" fill="#5a5a5a"><tspan font-size="14.00">1.2	imes10</tspan><tspan dy="-0.350em" font-size="10.08">⁷</tspan></text>
<line x1="121.45" y1="48.00" x2="121.45" y2="540.00" stroke="#e6e6e6" stroke-width="0.8"/>
<text x="121.45" y="554.00" font-size="14" text-anchor="middle" fill="#5a5a5a"><tspan font-size="14.00">10</tspan><tspan dy="-0.350em" font-size="10.08">⁶</tspan></text>
<line x1="192.36" y1="48.00" x2="192.36" y2="540.00" stroke="#e6e6e6" stroke-width="0.8"/>
<text x="192.36" y="554.00" font-size="14" text-anchor="middle" fill="#5a5a5a"><tspan font-size="14.00">10</tspan><tspan dy="-0.350em" font-size="10.08">⁶</tspan></text>
<line x1="263.27" y1="48.00" x2="263.27" y2="540.00" stroke="#e6e6e6" stroke-width="0.8"/>
<text x="263.27" y="554.00" font-size="14" text-anchor="middle" fill="#5a5a5a"><tspan font-size="14.00">10</tspan><tspan dy="-0.350em" font-size="10.08">⁶</tspan></text>
<line x1="334.18" y1="48.00" x2="334.18" y2="540.00" stroke="#e6e6e6" stroke-width="0.8"/>
<text x="334.18" y="554.00" font-size="14" text-anchor="middle" fill="#5a5a5a"><tspan font-size="14.00">1.1	imes10</tspan><tspan dy="-0.350em" font-size="10.08">⁶</tspan></text>
<line x1="405.09" y1="48.00" x2="405.09" y2="540.00" stroke="#e6e6e6" stroke-width="0.8"/>
<text x="405.09" y="554.00" font-size="14" text-anchor="middle" fill="#5a5a5a"><tspan font-size="14.00">1.1	imes10</tspan><tspan dy="-0.350em" font-size="10.08">⁶</tspan></text>
<line x1="476.00" y1="48.00" x2="476.00" y2="540.00" stroke="#e6e6e6" stroke-width="0.8"/>
<text x="476.00" y="554.00" font-size="14" text-anchor="middle" fill="#5a5a5a"><tspan font-size="14.00">1.1	imes10</tspan><tspan dy="-0.350em" font-size="10.08">⁶</tspan></text>
<line x1="546.91" y1="48.00" x2="546.91" y2="540.00" stroke="#e6e6e6" stroke-width="0.8"/>
<text x="546.91" y="554.00" font-size="14" text-anchor="middle" fill="#5a5a5a"><tspan font-size="14.00">1.1	imes10</tspan><tspan dy="-0.350em" font-size="10.08">⁶</tspan></text>
<line x1="617.82" y1="48.00" x2="617.82" y2="540.00" stroke="#e6e6e6" stroke-width="0.8"/>
<text x="617.82" y="554.00" font-size="14" text-anchor="middle" fill="#5a5a5a"><tspan font-size="14.00">1.1	imes10</tspan><tspan dy="-0.350em" font-size="10.08">⁶</tspan></text>
<line x1="688.73" y1="48.00" x2="688.73" y2="540.00" stroke="#e6e6e6" stroke-width="0.8"/>
<text x="688.73" y="554.00" font-size="14" text-anchor="middle" fill="#5a5a5a"><tspan font-size="14.00">1.2	imes10</tspan><tspan dy="-0.350em" font-size="10.08">⁶</tspan></text>
<line x1="759.64" y1="48.00" x2="759.64" y2="540.00" stroke="#e6e6e6" stroke-width="0.8"/>
<text x="759.64" y="554.00" font-size="14" text-anchor="middle" fill="#5a5a5a"><tspan font-size="14.00">1.2	imes10</tspan><tspan dy="-0.350em" font-size="10.08">⁶</tspan></text>
<line x1="830.55" y1="48.00" x2="830.55" y2="540.00" stroke="#e6e6e6" stroke-width="0.8"/>
<text x="830.55" y="554.00" font-size="14" text-anchor="middle" fill="#5a5a5a"><tspan font-size="14.00">1.2	imes10</tspan><tspan dy="-0.350em" font-size="10.08">⁶</tspan></text>
<rect x="86.00" y="48.00" width="780.00" height="492.00" rx="0" fill="none" stroke="#333333" opacity="1"/>
<polyline points="121.45,407.56 135.93,321.61 150.40,231.16 164.87,151.06 179.34,94.48 193.81,70.71 208.28,83.65 222.75,131.19 237.22,205.50 251.70,294.39 266.17,383.24 280.64,457.46 295.11,504.85 309.58,517.64 324.05,493.71 338.52,436.99 352.99,356.82 367.47,266.35 381.94,180.46 396.41,113.25 410.88,75.77 425.35,74.17 439.82,108.72 454.29,173.74 468.76,258.55 483.24,349.22 497.71,430.84 512.18,490.01 526.65,517.00 541.12,507.39 555.59,462.75 570.06,390.41 584.53,302.27 599.01,212.79 613.48,136.69 627.95,86.46 642.42,70.36 656.89,91.04 671.36,145.09 685.83,223.63 700.30,313.77 714.78,400.69 729.25,470.11 743.72,510.63 758.19,515.58 772.66,484.16 787.13,421.53 801.60,337.97 816.07,247.22 830.55,164.19" fill="none" stroke="#5B7CFA" stroke-width="1.5"/>
<text x="86.00" y="30.00" font-size="18" text-anchor="start" fill="#444" font-weight="700">A deliberately long figure title that describes the whole measurement campaign in detail</text>
<text x="476.00" y="578.00" font-size="16" text-anchor="middle" fill="#444" font-weight="700">Cumulative elapsed measurement time since experiment start (seconds)</text>
<text x="30.00" y="294.00" font-size="16" text-anchor="middle" fill="#444" font-weight="700" transform="rotate(-90 30.00 294.00)">Accumulated charge transferred through the working electrode (coulombs)</text>
</svg>
